<mxfile host="app.diagrams.net" modified="2021-12-31T14:12:23.097Z" agent="5.0 (Macintosh; Intel Mac OS X 10_16_0) AppleWebKit/537.36 (KHTML, like Gecko) Chrome/80.0.3987.163 Safari/537.36" etag="iBQLz2WlrNu96w_bqVDq" version="16.1.0" type="github">
  <diagram id="ni5Xx00nVa8eM5TbOv3I" name="第 1 页">
    <mxGraphModel dx="946" dy="600" grid="1" gridSize="10" guides="1" tooltips="1" connect="1" arrows="1" fold="1" page="1" pageScale="1" pageWidth="2339" pageHeight="3300" math="0" shadow="0">
      <root>
        <mxCell id="0" />
        <mxCell id="1" parent="0" />
        <mxCell id="hpwiOvs-CnEdbyn8o_mo-8" style="edgeStyle=orthogonalEdgeStyle;rounded=0;orthogonalLoop=1;jettySize=auto;html=1;exitX=0.5;exitY=1;exitDx=0;exitDy=0;" edge="1" parent="1" source="hpwiOvs-CnEdbyn8o_mo-1" target="hpwiOvs-CnEdbyn8o_mo-7">
          <mxGeometry relative="1" as="geometry" />
        </mxCell>
        <mxCell id="hpwiOvs-CnEdbyn8o_mo-1" value="@EnableTransactionManagement" style="shape=parallelogram;perimeter=parallelogramPerimeter;whiteSpace=wrap;html=1;fixedSize=1;" vertex="1" parent="1">
          <mxGeometry x="700" y="140" width="230" height="60" as="geometry" />
        </mxCell>
        <mxCell id="hpwiOvs-CnEdbyn8o_mo-4" value="&lt;div&gt;@Configuration&lt;/div&gt;&lt;div&gt;@EnableTransactionManagement&lt;/div&gt;&lt;div&gt;public class MyTransaction {&lt;/div&gt;&lt;div&gt;&lt;br&gt;&lt;/div&gt;&lt;blockquote style=&quot;margin: 0 0 0 40px ; border: none ; padding: 0px&quot;&gt;&lt;div&gt;@Bean&lt;/div&gt;&lt;div&gt;public JdbcTemplate jdbcTemplate(){&lt;/div&gt;&lt;div&gt;&lt;span style=&quot;white-space: pre&quot;&gt;	&lt;/span&gt;return new JdbcTemplate(dataSource());&lt;/div&gt;&lt;div&gt;}&lt;/div&gt;&lt;div&gt;&lt;br&gt;&lt;/div&gt;&lt;div&gt;@Bean&lt;/div&gt;&lt;div&gt;public PlatformTransactionManager platformTransactionManager(){&lt;/div&gt;&lt;/blockquote&gt;&lt;blockquote style=&quot;margin: 0 0 0 40px ; border: none ; padding: 0px&quot;&gt;&lt;blockquote style=&quot;margin: 0 0 0 40px ; border: none ; padding: 0px&quot;&gt;&lt;div&gt;DataSourceTransactionManager dataSourceTransactionManager = new DataSourceTransactionManager();&lt;/div&gt;&lt;/blockquote&gt;&lt;blockquote style=&quot;margin: 0 0 0 40px ; border: none ; padding: 0px&quot;&gt;&lt;div&gt;dataSourceTransactionManager.setDataSource(dataSource());&lt;/div&gt;&lt;/blockquote&gt;&lt;blockquote style=&quot;margin: 0 0 0 40px ; border: none ; padding: 0px&quot;&gt;&lt;div&gt;dataSourceTransactionManager.setGlobalRollbackOnParticipationFailure(true);&lt;/div&gt;&lt;/blockquote&gt;&lt;blockquote style=&quot;margin: 0 0 0 40px ; border: none ; padding: 0px&quot;&gt;&lt;div&gt;return dataSourceTransactionManager;&lt;/div&gt;&lt;/blockquote&gt;&lt;/blockquote&gt;&lt;blockquote style=&quot;margin: 0 0 0 40px ; border: none ; padding: 0px&quot;&gt;&lt;div&gt;}&lt;/div&gt;&lt;div&gt;&lt;br&gt;&lt;/div&gt;&lt;div&gt;@Bean&lt;/div&gt;&lt;div&gt;public DataSource dataSource(){&lt;/div&gt;&lt;/blockquote&gt;&lt;blockquote style=&quot;margin: 0 0 0 40px ; border: none ; padding: 0px&quot;&gt;&lt;blockquote style=&quot;margin: 0 0 0 40px ; border: none ; padding: 0px&quot;&gt;&lt;div&gt;DriverManagerDataSource driverManagerDataSource = new DriverManagerDataSource();&lt;/div&gt;&lt;/blockquote&gt;&lt;blockquote style=&quot;margin: 0 0 0 40px ; border: none ; padding: 0px&quot;&gt;&lt;div&gt;driverManagerDataSource.setDriverClassName(&quot;com.mysql.jdbc.Driver&quot;);&lt;/div&gt;&lt;/blockquote&gt;&lt;blockquote style=&quot;margin: 0 0 0 40px ; border: none ; padding: 0px&quot;&gt;&lt;div&gt;driverManagerDataSource.setUrl(&quot;jdbc:mysql://10.18.58.35:10000/ucdb&quot;);&lt;/div&gt;&lt;/blockquote&gt;&lt;blockquote style=&quot;margin: 0 0 0 40px ; border: none ; padding: 0px&quot;&gt;&lt;div&gt;driverManagerDataSource.setUsername(&quot;root&quot;);&lt;/div&gt;&lt;/blockquote&gt;&lt;blockquote style=&quot;margin: 0 0 0 40px ; border: none ; padding: 0px&quot;&gt;&lt;div&gt;driverManagerDataSource.setPassword(&quot;Ecif.123&quot;);&lt;/div&gt;&lt;/blockquote&gt;&lt;blockquote style=&quot;margin: 0 0 0 40px ; border: none ; padding: 0px&quot;&gt;&lt;div&gt;return driverManagerDataSource;&lt;/div&gt;&lt;/blockquote&gt;&lt;/blockquote&gt;&lt;blockquote style=&quot;margin: 0 0 0 40px ; border: none ; padding: 0px&quot;&gt;&lt;div&gt;}&lt;/div&gt;&lt;div&gt;&lt;br&gt;&lt;/div&gt;&lt;div&gt;@Bean&lt;/div&gt;&lt;div&gt;public MyTransactionService myTransactionService(){&lt;/div&gt;&lt;div&gt;&lt;span style=&quot;white-space: pre&quot;&gt;	&lt;/span&gt;return new MyTransactionService();&lt;/div&gt;&lt;div&gt;}&lt;/div&gt;&lt;/blockquote&gt;&lt;div&gt;&lt;span&gt;	&lt;/span&gt;}&lt;/div&gt;" style="whiteSpace=wrap;html=1;aspect=fixed;align=left;" vertex="1" parent="1">
          <mxGeometry x="50" y="80" width="520" height="520" as="geometry" />
        </mxCell>
        <mxCell id="hpwiOvs-CnEdbyn8o_mo-10" style="edgeStyle=orthogonalEdgeStyle;rounded=0;orthogonalLoop=1;jettySize=auto;html=1;exitX=0.5;exitY=1;exitDx=0;exitDy=0;" edge="1" parent="1" source="hpwiOvs-CnEdbyn8o_mo-7" target="hpwiOvs-CnEdbyn8o_mo-9">
          <mxGeometry relative="1" as="geometry" />
        </mxCell>
        <mxCell id="hpwiOvs-CnEdbyn8o_mo-7" value="@Import(TransactionManagementConfigurationSelector.class)" style="rounded=1;whiteSpace=wrap;html=1;" vertex="1" parent="1">
          <mxGeometry x="625" y="280" width="380" height="60" as="geometry" />
        </mxCell>
        <mxCell id="hpwiOvs-CnEdbyn8o_mo-12" style="edgeStyle=orthogonalEdgeStyle;rounded=0;orthogonalLoop=1;jettySize=auto;html=1;exitX=0.5;exitY=1;exitDx=0;exitDy=0;entryX=0.5;entryY=0;entryDx=0;entryDy=0;" edge="1" parent="1" source="hpwiOvs-CnEdbyn8o_mo-9" target="hpwiOvs-CnEdbyn8o_mo-11">
          <mxGeometry relative="1" as="geometry" />
        </mxCell>
        <mxCell id="hpwiOvs-CnEdbyn8o_mo-9" value="向容器中注册一个配置类&lt;br&gt;ProxyTransactionManagementConfiguration" style="rounded=1;whiteSpace=wrap;html=1;" vertex="1" parent="1">
          <mxGeometry x="678.75" y="420" width="272.5" height="40" as="geometry" />
        </mxCell>
        <mxCell id="hpwiOvs-CnEdbyn8o_mo-17" style="edgeStyle=orthogonalEdgeStyle;rounded=0;orthogonalLoop=1;jettySize=auto;html=1;exitX=1;exitY=0.5;exitDx=0;exitDy=0;entryX=0;entryY=0.5;entryDx=0;entryDy=0;" edge="1" parent="1" source="hpwiOvs-CnEdbyn8o_mo-11" target="hpwiOvs-CnEdbyn8o_mo-14">
          <mxGeometry relative="1" as="geometry" />
        </mxCell>
        <mxCell id="hpwiOvs-CnEdbyn8o_mo-18" style="edgeStyle=orthogonalEdgeStyle;rounded=0;orthogonalLoop=1;jettySize=auto;html=1;exitX=1;exitY=0.5;exitDx=0;exitDy=0;entryX=0;entryY=0.5;entryDx=0;entryDy=0;" edge="1" parent="1" source="hpwiOvs-CnEdbyn8o_mo-11" target="hpwiOvs-CnEdbyn8o_mo-15">
          <mxGeometry relative="1" as="geometry" />
        </mxCell>
        <mxCell id="hpwiOvs-CnEdbyn8o_mo-19" style="edgeStyle=orthogonalEdgeStyle;rounded=0;orthogonalLoop=1;jettySize=auto;html=1;exitX=1;exitY=0.5;exitDx=0;exitDy=0;entryX=0;entryY=0.5;entryDx=0;entryDy=0;" edge="1" parent="1" source="hpwiOvs-CnEdbyn8o_mo-11" target="hpwiOvs-CnEdbyn8o_mo-16">
          <mxGeometry relative="1" as="geometry" />
        </mxCell>
        <mxCell id="hpwiOvs-CnEdbyn8o_mo-21" value="&lt;span style=&quot;color: rgba(0 , 0 , 0 , 0) ; font-family: monospace ; font-size: 0px ; background-color: rgb(248 , 249 , 250)&quot;&gt;%3CmxGraphModel%3E%3Croot%3E%3CmxCell%20id%3D%220%22%2F%3E%3CmxCell%20id%3D%221%22%20parent%3D%220%22%2F%3E%3CmxCell%20id%3D%222%22%20value%3D%22%E5%88%9B%E5%BB%BA%20bean%22%20style%3D%22edgeLabel%3Bhtml%3D1%3Balign%3Dcenter%3BverticalAlign%3Dmiddle%3Bresizable%3D0%3Bpoints%3D%5B%5D%3B%22%20vertex%3D%221%22%20connectable%3D%220%22%20parent%3D%221%22%3E%3CmxGeometry%20x%3D%22998.6363636363635%22%20y%3D%22504.8409090909088%22%20as%3D%22geometry%22%2F%3E%3C%2FmxCell%3E%3C%2Froot%3E%3C%2FmxGraphModel%3E&lt;/span&gt;" style="edgeLabel;html=1;align=center;verticalAlign=middle;resizable=0;points=[];" vertex="1" connectable="0" parent="hpwiOvs-CnEdbyn8o_mo-19">
          <mxGeometry x="-0.5683" relative="1" as="geometry">
            <mxPoint as="offset" />
          </mxGeometry>
        </mxCell>
        <mxCell id="hpwiOvs-CnEdbyn8o_mo-11" value="ProxyTransactionManagementConfiguration类创建了三个 bean ，并放入容器中" style="rounded=1;whiteSpace=wrap;html=1;" vertex="1" parent="1">
          <mxGeometry x="678.75" y="520" width="272.5" height="40" as="geometry" />
        </mxCell>
        <mxCell id="hpwiOvs-CnEdbyn8o_mo-14" value="对下面两个bean进行封装，最终创建一个advisor对象&lt;br&gt;BeanFactoryTransactionAttributeSourceAdvisor" style="rounded=1;whiteSpace=wrap;html=1;" vertex="1" parent="1">
          <mxGeometry x="1050" y="420" width="320" height="50" as="geometry" />
        </mxCell>
        <mxCell id="hpwiOvs-CnEdbyn8o_mo-15" value="用来解析Transaction的注解的对象，并封装成PointCut对象&lt;br&gt;TransactionAttributeSource" style="rounded=1;whiteSpace=wrap;html=1;" vertex="1" parent="1">
          <mxGeometry x="1050" y="515" width="320" height="50" as="geometry" />
        </mxCell>
        <mxCell id="hpwiOvs-CnEdbyn8o_mo-23" style="edgeStyle=orthogonalEdgeStyle;rounded=0;orthogonalLoop=1;jettySize=auto;html=1;exitX=1;exitY=0.5;exitDx=0;exitDy=0;" edge="1" parent="1" source="hpwiOvs-CnEdbyn8o_mo-16" target="hpwiOvs-CnEdbyn8o_mo-22">
          <mxGeometry relative="1" as="geometry" />
        </mxCell>
        <mxCell id="hpwiOvs-CnEdbyn8o_mo-24" value="当调用带有@Transaction注解的类或&lt;br&gt;方法时，就会调用这里的增强逻辑" style="edgeLabel;html=1;align=center;verticalAlign=middle;resizable=0;points=[];" vertex="1" connectable="0" parent="hpwiOvs-CnEdbyn8o_mo-23">
          <mxGeometry x="-0.1948" y="-2" relative="1" as="geometry">
            <mxPoint as="offset" />
          </mxGeometry>
        </mxCell>
        <mxCell id="hpwiOvs-CnEdbyn8o_mo-16" value="创建advice&lt;br&gt;TransactionInterceptor" style="rounded=1;whiteSpace=wrap;html=1;" vertex="1" parent="1">
          <mxGeometry x="1050" y="600" width="320" height="50" as="geometry" />
        </mxCell>
        <mxCell id="hpwiOvs-CnEdbyn8o_mo-26" style="edgeStyle=orthogonalEdgeStyle;rounded=0;orthogonalLoop=1;jettySize=auto;html=1;exitX=1;exitY=0.5;exitDx=0;exitDy=0;entryX=0;entryY=0.5;entryDx=0;entryDy=0;" edge="1" parent="1" source="hpwiOvs-CnEdbyn8o_mo-22" target="hpwiOvs-CnEdbyn8o_mo-25">
          <mxGeometry relative="1" as="geometry" />
        </mxCell>
        <mxCell id="hpwiOvs-CnEdbyn8o_mo-28" style="edgeStyle=orthogonalEdgeStyle;rounded=0;orthogonalLoop=1;jettySize=auto;html=1;exitX=1;exitY=0.5;exitDx=0;exitDy=0;entryX=0;entryY=0.5;entryDx=0;entryDy=0;" edge="1" parent="1" source="hpwiOvs-CnEdbyn8o_mo-22" target="hpwiOvs-CnEdbyn8o_mo-27">
          <mxGeometry relative="1" as="geometry" />
        </mxCell>
        <mxCell id="hpwiOvs-CnEdbyn8o_mo-22" value="TransactionInterceptor.java&lt;br&gt;invoke(MethodInvocation invocation)&lt;br&gt;&lt;div&gt;&lt;/div&gt;" style="rounded=1;whiteSpace=wrap;html=1;" vertex="1" parent="1">
          <mxGeometry x="1700" y="600" width="320" height="50" as="geometry" />
        </mxCell>
        <mxCell id="hpwiOvs-CnEdbyn8o_mo-25" value="获取代理对象的类对象&lt;br&gt;TransactionInterceptor.java&lt;br&gt;Class&amp;lt;?&amp;gt; targetClass = (invocation.getThis() != null ? AopUtils.getTargetClass(invocation.getThis()) : null);&lt;br&gt;&lt;div&gt;&lt;/div&gt;" style="rounded=1;whiteSpace=wrap;html=1;" vertex="1" parent="1">
          <mxGeometry x="2160" y="515" width="290" height="65" as="geometry" />
        </mxCell>
        <mxCell id="hpwiOvs-CnEdbyn8o_mo-33" style="edgeStyle=orthogonalEdgeStyle;rounded=0;orthogonalLoop=1;jettySize=auto;html=1;exitX=1;exitY=0.5;exitDx=0;exitDy=0;entryX=0;entryY=0.5;entryDx=0;entryDy=0;" edge="1" parent="1" source="hpwiOvs-CnEdbyn8o_mo-27" target="hpwiOvs-CnEdbyn8o_mo-29">
          <mxGeometry relative="1" as="geometry" />
        </mxCell>
        <mxCell id="hpwiOvs-CnEdbyn8o_mo-35" style="edgeStyle=orthogonalEdgeStyle;rounded=0;orthogonalLoop=1;jettySize=auto;html=1;exitX=1;exitY=0.5;exitDx=0;exitDy=0;" edge="1" parent="1" source="hpwiOvs-CnEdbyn8o_mo-27" target="hpwiOvs-CnEdbyn8o_mo-34">
          <mxGeometry relative="1" as="geometry" />
        </mxCell>
        <mxCell id="hpwiOvs-CnEdbyn8o_mo-60" style="edgeStyle=orthogonalEdgeStyle;rounded=0;orthogonalLoop=1;jettySize=auto;html=1;exitX=1;exitY=0.5;exitDx=0;exitDy=0;entryX=0;entryY=0.5;entryDx=0;entryDy=0;fontColor=#3333FF;" edge="1" parent="1" source="hpwiOvs-CnEdbyn8o_mo-27" target="hpwiOvs-CnEdbyn8o_mo-59">
          <mxGeometry relative="1" as="geometry" />
        </mxCell>
        <mxCell id="hpwiOvs-CnEdbyn8o_mo-62" style="edgeStyle=orthogonalEdgeStyle;rounded=0;orthogonalLoop=1;jettySize=auto;html=1;exitX=1;exitY=0.5;exitDx=0;exitDy=0;entryX=0;entryY=0.5;entryDx=0;entryDy=0;fontColor=#3333FF;" edge="1" parent="1" source="hpwiOvs-CnEdbyn8o_mo-27" target="hpwiOvs-CnEdbyn8o_mo-61">
          <mxGeometry relative="1" as="geometry" />
        </mxCell>
        <mxCell id="hpwiOvs-CnEdbyn8o_mo-64" style="edgeStyle=orthogonalEdgeStyle;rounded=0;orthogonalLoop=1;jettySize=auto;html=1;exitX=1;exitY=0.5;exitDx=0;exitDy=0;entryX=0;entryY=0.5;entryDx=0;entryDy=0;fontColor=#3333FF;" edge="1" parent="1" source="hpwiOvs-CnEdbyn8o_mo-27" target="hpwiOvs-CnEdbyn8o_mo-63">
          <mxGeometry relative="1" as="geometry" />
        </mxCell>
        <mxCell id="hpwiOvs-CnEdbyn8o_mo-66" style="edgeStyle=orthogonalEdgeStyle;rounded=0;orthogonalLoop=1;jettySize=auto;html=1;exitX=1;exitY=0.5;exitDx=0;exitDy=0;entryX=0;entryY=0.5;entryDx=0;entryDy=0;fontColor=#3333FF;" edge="1" parent="1" source="hpwiOvs-CnEdbyn8o_mo-27" target="hpwiOvs-CnEdbyn8o_mo-65">
          <mxGeometry relative="1" as="geometry" />
        </mxCell>
        <mxCell id="hpwiOvs-CnEdbyn8o_mo-27" value="TransactionInterceptor.java&lt;br&gt;invokeWithinTransaction(invocation.getMethod(), targetClass, invocation::proceed)&lt;br&gt;&lt;div&gt;&lt;/div&gt;" style="rounded=1;whiteSpace=wrap;html=1;" vertex="1" parent="1">
          <mxGeometry x="2160" y="640" width="290" height="65" as="geometry" />
        </mxCell>
        <mxCell id="hpwiOvs-CnEdbyn8o_mo-30" style="edgeStyle=orthogonalEdgeStyle;rounded=0;orthogonalLoop=1;jettySize=auto;html=1;exitX=0.5;exitY=0;exitDx=0;exitDy=0;dashed=1;" edge="1" parent="1" source="hpwiOvs-CnEdbyn8o_mo-29" target="hpwiOvs-CnEdbyn8o_mo-15">
          <mxGeometry relative="1" as="geometry">
            <Array as="points">
              <mxPoint x="2695" y="480" />
              <mxPoint x="1210" y="480" />
            </Array>
          </mxGeometry>
        </mxCell>
        <mxCell id="hpwiOvs-CnEdbyn8o_mo-31" value="就是前面创建的这个bean对象" style="edgeLabel;html=1;align=center;verticalAlign=middle;resizable=0;points=[];" vertex="1" connectable="0" parent="hpwiOvs-CnEdbyn8o_mo-30">
          <mxGeometry x="-0.9315" y="4" relative="1" as="geometry">
            <mxPoint x="4" y="10" as="offset" />
          </mxGeometry>
        </mxCell>
        <mxCell id="hpwiOvs-CnEdbyn8o_mo-29" value="获取解析@Transaction的注解的对象&lt;br&gt;TransactionAspectSupport.java&lt;br&gt;TransactionAttributeSource tas = getTransactionAttributeSource();&lt;br&gt;&lt;div&gt;&lt;/div&gt;" style="rounded=1;whiteSpace=wrap;html=1;" vertex="1" parent="1">
          <mxGeometry x="2550" y="560" width="290" height="65" as="geometry" />
        </mxCell>
        <mxCell id="hpwiOvs-CnEdbyn8o_mo-37" style="edgeStyle=orthogonalEdgeStyle;rounded=0;orthogonalLoop=1;jettySize=auto;html=1;exitX=1;exitY=0.5;exitDx=0;exitDy=0;entryX=0;entryY=0.5;entryDx=0;entryDy=0;" edge="1" parent="1" source="hpwiOvs-CnEdbyn8o_mo-34" target="hpwiOvs-CnEdbyn8o_mo-36">
          <mxGeometry relative="1" as="geometry" />
        </mxCell>
        <mxCell id="hpwiOvs-CnEdbyn8o_mo-34" value="解析@Transaction的注解&lt;br&gt;TransactionAspectSupport.java&lt;br&gt;tas.getTransactionAttribute(method, targetClass)&lt;br&gt;&lt;div&gt;&lt;/div&gt;" style="rounded=1;whiteSpace=wrap;html=1;" vertex="1" parent="1">
          <mxGeometry x="2550" y="670" width="290" height="65" as="geometry" />
        </mxCell>
        <mxCell id="hpwiOvs-CnEdbyn8o_mo-41" style="edgeStyle=orthogonalEdgeStyle;rounded=0;orthogonalLoop=1;jettySize=auto;html=1;exitX=1;exitY=0.5;exitDx=0;exitDy=0;entryX=0;entryY=0.5;entryDx=0;entryDy=0;" edge="1" parent="1" source="hpwiOvs-CnEdbyn8o_mo-36" target="hpwiOvs-CnEdbyn8o_mo-39">
          <mxGeometry relative="1" as="geometry" />
        </mxCell>
        <mxCell id="hpwiOvs-CnEdbyn8o_mo-43" style="edgeStyle=orthogonalEdgeStyle;rounded=0;orthogonalLoop=1;jettySize=auto;html=1;exitX=1;exitY=0.5;exitDx=0;exitDy=0;entryX=0;entryY=0.5;entryDx=0;entryDy=0;" edge="1" parent="1" source="hpwiOvs-CnEdbyn8o_mo-36" target="hpwiOvs-CnEdbyn8o_mo-42">
          <mxGeometry relative="1" as="geometry" />
        </mxCell>
        <mxCell id="hpwiOvs-CnEdbyn8o_mo-36" value="解析@Transaction的注解&lt;br&gt;TransactionAspectSupport.java&lt;br&gt;tas.getTransactionAttribute(method, targetClass)&lt;br&gt;&lt;div&gt;&lt;/div&gt;" style="rounded=1;whiteSpace=wrap;html=1;" vertex="1" parent="1">
          <mxGeometry x="2940" y="670" width="290" height="65" as="geometry" />
        </mxCell>
        <mxCell id="hpwiOvs-CnEdbyn8o_mo-39" value="TransactionInfo txInfo = createTransactionIfNecessary(tm, txAttr, joinpointIdentification);" style="rhombus;whiteSpace=wrap;html=1;" vertex="1" parent="1">
          <mxGeometry x="3390" y="580" width="220" height="90" as="geometry" />
        </mxCell>
        <mxCell id="hpwiOvs-CnEdbyn8o_mo-45" style="edgeStyle=orthogonalEdgeStyle;rounded=0;orthogonalLoop=1;jettySize=auto;html=1;exitX=1;exitY=0.5;exitDx=0;exitDy=0;" edge="1" parent="1" source="hpwiOvs-CnEdbyn8o_mo-42" target="hpwiOvs-CnEdbyn8o_mo-44">
          <mxGeometry relative="1" as="geometry" />
        </mxCell>
        <mxCell id="hpwiOvs-CnEdbyn8o_mo-42" value="AbstractFallbackTransactionAttributeSource.java&lt;br&gt;TransactionAttribute txAttr = computeTransactionAttribute(method, targetClass);&lt;br&gt;&lt;div&gt;&lt;/div&gt;" style="rounded=1;whiteSpace=wrap;html=1;" vertex="1" parent="1">
          <mxGeometry x="3390" y="780" width="290" height="65" as="geometry" />
        </mxCell>
        <mxCell id="hpwiOvs-CnEdbyn8o_mo-47" style="edgeStyle=orthogonalEdgeStyle;rounded=0;orthogonalLoop=1;jettySize=auto;html=1;exitX=1;exitY=0.5;exitDx=0;exitDy=0;entryX=0;entryY=0.5;entryDx=0;entryDy=0;" edge="1" parent="1" source="hpwiOvs-CnEdbyn8o_mo-44" target="hpwiOvs-CnEdbyn8o_mo-46">
          <mxGeometry relative="1" as="geometry" />
        </mxCell>
        <mxCell id="hpwiOvs-CnEdbyn8o_mo-44" value="AbstractFallbackTransactionAttributeSource.java&lt;br&gt;TransactionAttribute txAttr = computeTransactionAttribute(method, targetClass);&lt;br&gt;&lt;div&gt;&lt;/div&gt;" style="rounded=1;whiteSpace=wrap;html=1;" vertex="1" parent="1">
          <mxGeometry x="3800" y="780" width="290" height="65" as="geometry" />
        </mxCell>
        <mxCell id="hpwiOvs-CnEdbyn8o_mo-49" style="edgeStyle=orthogonalEdgeStyle;rounded=0;orthogonalLoop=1;jettySize=auto;html=1;exitX=1;exitY=0.5;exitDx=0;exitDy=0;entryX=0;entryY=0.5;entryDx=0;entryDy=0;" edge="1" parent="1" source="hpwiOvs-CnEdbyn8o_mo-46" target="hpwiOvs-CnEdbyn8o_mo-48">
          <mxGeometry relative="1" as="geometry" />
        </mxCell>
        <mxCell id="hpwiOvs-CnEdbyn8o_mo-46" value="查看方法中是否存在事务声明&lt;br&gt;AbstractFallbackTransactionAttributeSource.java&lt;br&gt;TransactionAttribute txAttr = findTransactionAttribute(specificMethod);&lt;br&gt;&lt;div&gt;&lt;/div&gt;" style="rounded=1;whiteSpace=wrap;html=1;" vertex="1" parent="1">
          <mxGeometry x="4180" y="780" width="290" height="65" as="geometry" />
        </mxCell>
        <mxCell id="hpwiOvs-CnEdbyn8o_mo-51" style="edgeStyle=orthogonalEdgeStyle;rounded=0;orthogonalLoop=1;jettySize=auto;html=1;exitX=1;exitY=0.5;exitDx=0;exitDy=0;entryX=0;entryY=0.5;entryDx=0;entryDy=0;" edge="1" parent="1" source="hpwiOvs-CnEdbyn8o_mo-48" target="hpwiOvs-CnEdbyn8o_mo-50">
          <mxGeometry relative="1" as="geometry" />
        </mxCell>
        <mxCell id="hpwiOvs-CnEdbyn8o_mo-48" value="AnnotationTransactionAttributeSource.java&lt;br&gt;determineTransactionAttribute(method)&lt;br&gt;&lt;div&gt;&lt;/div&gt;" style="rounded=1;whiteSpace=wrap;html=1;" vertex="1" parent="1">
          <mxGeometry x="4590" y="780" width="290" height="65" as="geometry" />
        </mxCell>
        <mxCell id="hpwiOvs-CnEdbyn8o_mo-53" style="edgeStyle=orthogonalEdgeStyle;rounded=0;orthogonalLoop=1;jettySize=auto;html=1;exitX=1;exitY=0.5;exitDx=0;exitDy=0;entryX=0;entryY=0.5;entryDx=0;entryDy=0;" edge="1" parent="1" source="hpwiOvs-CnEdbyn8o_mo-50" target="hpwiOvs-CnEdbyn8o_mo-52">
          <mxGeometry relative="1" as="geometry" />
        </mxCell>
        <mxCell id="hpwiOvs-CnEdbyn8o_mo-55" style="edgeStyle=orthogonalEdgeStyle;rounded=0;orthogonalLoop=1;jettySize=auto;html=1;exitX=1;exitY=0.5;exitDx=0;exitDy=0;entryX=0;entryY=0.5;entryDx=0;entryDy=0;fontColor=#000000;" edge="1" parent="1" source="hpwiOvs-CnEdbyn8o_mo-50" target="hpwiOvs-CnEdbyn8o_mo-54">
          <mxGeometry relative="1" as="geometry" />
        </mxCell>
        <mxCell id="hpwiOvs-CnEdbyn8o_mo-50" value="AnnotationTransactionAttributeSource.java&lt;br&gt;TransactionAttribute attr = annotationParser.parseTransactionAnnotation(element)&lt;br&gt;&lt;div&gt;&lt;/div&gt;" style="rounded=1;whiteSpace=wrap;html=1;" vertex="1" parent="1">
          <mxGeometry x="4980" y="780" width="290" height="65" as="geometry" />
        </mxCell>
        <mxCell id="hpwiOvs-CnEdbyn8o_mo-52" value="&lt;b&gt;&lt;font color=&quot;#ff6666&quot;&gt;获取@Transaction注解&lt;/font&gt;&lt;/b&gt;&lt;br&gt;SpringTransactionAnnotationParser.java&lt;br&gt;&lt;div&gt;AnnotationAttributes attributes = AnnotatedElementUtils.findMergedAnnotationAttributes(&lt;/div&gt;&lt;div&gt;&lt;span&gt;				&lt;/span&gt;element,&lt;font color=&quot;#ff6666&quot;&gt;&lt;b&gt; Transactional.class&lt;/b&gt;&lt;/font&gt;, false, false);&lt;/div&gt;&lt;div&gt;&lt;/div&gt;" style="rounded=1;whiteSpace=wrap;html=1;" vertex="1" parent="1">
          <mxGeometry x="5440" y="630" width="290" height="75" as="geometry" />
        </mxCell>
        <mxCell id="hpwiOvs-CnEdbyn8o_mo-57" style="edgeStyle=orthogonalEdgeStyle;rounded=0;orthogonalLoop=1;jettySize=auto;html=1;exitX=1;exitY=0.5;exitDx=0;exitDy=0;fontColor=#000000;" edge="1" parent="1" source="hpwiOvs-CnEdbyn8o_mo-54" target="hpwiOvs-CnEdbyn8o_mo-56">
          <mxGeometry relative="1" as="geometry" />
        </mxCell>
        <mxCell id="hpwiOvs-CnEdbyn8o_mo-58" value="true" style="edgeLabel;html=1;align=center;verticalAlign=middle;resizable=0;points=[];fontColor=#000000;" vertex="1" connectable="0" parent="hpwiOvs-CnEdbyn8o_mo-57">
          <mxGeometry x="-0.1764" y="3" relative="1" as="geometry">
            <mxPoint as="offset" />
          </mxGeometry>
        </mxCell>
        <mxCell id="hpwiOvs-CnEdbyn8o_mo-54" value="&lt;font color=&quot;#000000&quot;&gt;attributes != null&lt;/font&gt;" style="rhombus;whiteSpace=wrap;html=1;fontColor=#FF6666;" vertex="1" parent="1">
          <mxGeometry x="5505" y="772.5" width="160" height="80" as="geometry" />
        </mxCell>
        <mxCell id="hpwiOvs-CnEdbyn8o_mo-56" value="&lt;b&gt;&lt;font color=&quot;#ff6666&quot;&gt;获取@Transaction注解的各种属性，并封装到&lt;/font&gt;&lt;font color=&quot;#3333ff&quot;&gt;RuleBasedTransactionAttribute&lt;/font&gt;&lt;font color=&quot;#ff6666&quot;&gt;对象中并&lt;/font&gt;&lt;font color=&quot;#3333ff&quot;&gt;返回&lt;/font&gt;&lt;/b&gt;&lt;br&gt;parseTransactionAnnotation(attributes)&lt;br&gt;&lt;div&gt;&lt;/div&gt;" style="rounded=1;whiteSpace=wrap;html=1;" vertex="1" parent="1">
          <mxGeometry x="5840" y="780" width="290" height="65" as="geometry" />
        </mxCell>
        <mxCell id="hpwiOvs-CnEdbyn8o_mo-59" value="从 beanFactory 中获取配置文件中配置的 transactionManager&lt;br&gt;TransactionAspectSupport.java&lt;br&gt;final PlatformTransactionManager tm = determineTransactionManager(txAttr);&lt;br&gt;&lt;div&gt;&lt;/div&gt;" style="rounded=1;whiteSpace=wrap;html=1;" vertex="1" parent="1">
          <mxGeometry x="2550" y="790" width="420" height="62.5" as="geometry" />
        </mxCell>
        <mxCell id="hpwiOvs-CnEdbyn8o_mo-61" value="方法的全路径限定名TransactionAspectSupport.java&lt;br&gt;final String joinpointIdentification = methodIdentification(method, targetClass, txAttr);&lt;br&gt;&lt;div&gt;&lt;/div&gt;" style="rounded=1;whiteSpace=wrap;html=1;" vertex="1" parent="1">
          <mxGeometry x="2550" y="900" width="420" height="62.5" as="geometry" />
        </mxCell>
        <mxCell id="hpwiOvs-CnEdbyn8o_mo-63" value="方法的全路径限定名&lt;br&gt;TransactionAspectSupport.java&lt;br&gt;final String joinpointIdentification = methodIdentification(method, targetClass, txAttr);&lt;br&gt;&lt;div&gt;&lt;/div&gt;" style="rounded=1;whiteSpace=wrap;html=1;" vertex="1" parent="1">
          <mxGeometry x="2550" y="1010" width="420" height="62.5" as="geometry" />
        </mxCell>
        <mxCell id="hpwiOvs-CnEdbyn8o_mo-68" style="edgeStyle=orthogonalEdgeStyle;rounded=0;orthogonalLoop=1;jettySize=auto;html=1;exitX=1;exitY=0.5;exitDx=0;exitDy=0;fontColor=#3333FF;entryX=0;entryY=0.5;entryDx=0;entryDy=0;" edge="1" parent="1" source="hpwiOvs-CnEdbyn8o_mo-65" target="hpwiOvs-CnEdbyn8o_mo-67">
          <mxGeometry relative="1" as="geometry">
            <mxPoint x="3120" y="1140" as="targetPoint" />
          </mxGeometry>
        </mxCell>
        <mxCell id="hpwiOvs-CnEdbyn8o_mo-74" style="edgeStyle=orthogonalEdgeStyle;rounded=0;orthogonalLoop=1;jettySize=auto;html=1;exitX=1;exitY=0.5;exitDx=0;exitDy=0;fontColor=#3333FF;" edge="1" parent="1" source="hpwiOvs-CnEdbyn8o_mo-65" target="hpwiOvs-CnEdbyn8o_mo-73">
          <mxGeometry relative="1" as="geometry" />
        </mxCell>
        <mxCell id="hpwiOvs-CnEdbyn8o_mo-65" value="TransactionAspectSupport.java&lt;br&gt;TransactionInfo txInfo = createTransactionIfNecessary(tm, txAttr, joinpointIdentification);&lt;br&gt;&lt;div&gt;&lt;/div&gt;" style="rounded=1;whiteSpace=wrap;html=1;" vertex="1" parent="1">
          <mxGeometry x="2550" y="1120" width="420" height="62.5" as="geometry" />
        </mxCell>
        <mxCell id="hpwiOvs-CnEdbyn8o_mo-71" style="edgeStyle=orthogonalEdgeStyle;rounded=0;orthogonalLoop=1;jettySize=auto;html=1;exitX=1;exitY=0.5;exitDx=0;exitDy=0;entryX=0;entryY=0.5;entryDx=0;entryDy=0;fontColor=#3333FF;" edge="1" parent="1" source="hpwiOvs-CnEdbyn8o_mo-67" target="hpwiOvs-CnEdbyn8o_mo-69">
          <mxGeometry relative="1" as="geometry" />
        </mxCell>
        <mxCell id="hpwiOvs-CnEdbyn8o_mo-67" value="txAttr != null &amp;amp;&amp;amp; txAttr.getName() == null" style="rhombus;whiteSpace=wrap;html=1;" vertex="1" parent="1">
          <mxGeometry x="3150" y="980" width="220" height="90" as="geometry" />
        </mxCell>
        <mxCell id="hpwiOvs-CnEdbyn8o_mo-72" style="edgeStyle=orthogonalEdgeStyle;rounded=0;orthogonalLoop=1;jettySize=auto;html=1;exitX=0.5;exitY=0;exitDx=0;exitDy=0;fontColor=#3333FF;dashed=1;" edge="1" parent="1" source="hpwiOvs-CnEdbyn8o_mo-69">
          <mxGeometry relative="1" as="geometry">
            <mxPoint x="2970" y="1041" as="targetPoint" />
            <Array as="points">
              <mxPoint x="3655" y="910" />
              <mxPoint x="3030" y="910" />
              <mxPoint x="3030" y="1041" />
            </Array>
          </mxGeometry>
        </mxCell>
        <mxCell id="hpwiOvs-CnEdbyn8o_mo-69" value="&lt;div&gt;重新创建一个对象，并设置name属性&lt;/div&gt;&lt;div&gt;txAttr = new DelegatingTransactionAttribute(txAttr) {&lt;/div&gt;&lt;div style=&quot;text-align: left&quot;&gt;&lt;span&gt;				&lt;/span&gt;&lt;span style=&quot;white-space: pre&quot;&gt;	&lt;/span&gt;@Override&lt;/div&gt;&lt;div style=&quot;text-align: left&quot;&gt;&lt;span&gt;				&lt;/span&gt;&lt;span style=&quot;white-space: pre&quot;&gt;	&lt;span style=&quot;white-space: pre&quot;&gt;	&lt;/span&gt;&lt;/span&gt;public String getName() {&lt;/div&gt;&lt;div style=&quot;text-align: left&quot;&gt;&lt;span style=&quot;white-space: pre&quot;&gt;	&lt;/span&gt;&lt;span style=&quot;white-space: pre&quot;&gt;	&lt;/span&gt;// 这个值就是前面获取到的name值&lt;br&gt;&lt;/div&gt;&lt;div style=&quot;text-align: left&quot;&gt;&lt;span&gt;					&lt;/span&gt;&lt;span style=&quot;white-space: pre&quot;&gt;	&lt;/span&gt;&lt;span style=&quot;white-space: pre&quot;&gt;	&lt;/span&gt;return joinpointIdentification;&lt;/div&gt;&lt;div style=&quot;text-align: left&quot;&gt;&lt;span&gt;				&lt;/span&gt;&lt;span style=&quot;white-space: pre&quot;&gt;	&lt;/span&gt;}&lt;/div&gt;&lt;div style=&quot;text-align: left&quot;&gt;&lt;span&gt;			&lt;/span&gt;};&lt;/div&gt;&lt;div&gt;&lt;/div&gt;" style="rounded=1;whiteSpace=wrap;html=1;" vertex="1" parent="1">
          <mxGeometry x="3500" y="930" width="310" height="110" as="geometry" />
        </mxCell>
        <mxCell id="hpwiOvs-CnEdbyn8o_mo-76" style="edgeStyle=orthogonalEdgeStyle;rounded=0;orthogonalLoop=1;jettySize=auto;html=1;exitX=1;exitY=0.5;exitDx=0;exitDy=0;fontColor=#3333FF;" edge="1" parent="1" source="hpwiOvs-CnEdbyn8o_mo-73" target="hpwiOvs-CnEdbyn8o_mo-75">
          <mxGeometry relative="1" as="geometry" />
        </mxCell>
        <mxCell id="hpwiOvs-CnEdbyn8o_mo-93" style="edgeStyle=orthogonalEdgeStyle;rounded=0;orthogonalLoop=1;jettySize=auto;html=1;exitX=1;exitY=0.5;exitDx=0;exitDy=0;entryX=0;entryY=0.5;entryDx=0;entryDy=0;fontColor=#3333FF;" edge="1" parent="1" source="hpwiOvs-CnEdbyn8o_mo-73" target="hpwiOvs-CnEdbyn8o_mo-92">
          <mxGeometry relative="1" as="geometry" />
        </mxCell>
        <mxCell id="hpwiOvs-CnEdbyn8o_mo-103" style="edgeStyle=orthogonalEdgeStyle;rounded=0;orthogonalLoop=1;jettySize=auto;html=1;exitX=1;exitY=0.5;exitDx=0;exitDy=0;entryX=0;entryY=0.5;entryDx=0;entryDy=0;fontColor=#000000;" edge="1" parent="1" source="hpwiOvs-CnEdbyn8o_mo-73" target="hpwiOvs-CnEdbyn8o_mo-98">
          <mxGeometry relative="1" as="geometry" />
        </mxCell>
        <mxCell id="hpwiOvs-CnEdbyn8o_mo-105" style="edgeStyle=orthogonalEdgeStyle;rounded=0;orthogonalLoop=1;jettySize=auto;html=1;exitX=1;exitY=0.5;exitDx=0;exitDy=0;entryX=0;entryY=0.5;entryDx=0;entryDy=0;fontColor=#000000;" edge="1" parent="1" source="hpwiOvs-CnEdbyn8o_mo-73" target="hpwiOvs-CnEdbyn8o_mo-104">
          <mxGeometry relative="1" as="geometry" />
        </mxCell>
        <mxCell id="hpwiOvs-CnEdbyn8o_mo-110" style="edgeStyle=orthogonalEdgeStyle;rounded=0;orthogonalLoop=1;jettySize=auto;html=1;exitX=1;exitY=0.5;exitDx=0;exitDy=0;entryX=0;entryY=0.5;entryDx=0;entryDy=0;fontColor=#FF6666;" edge="1" parent="1" source="hpwiOvs-CnEdbyn8o_mo-73" target="hpwiOvs-CnEdbyn8o_mo-109">
          <mxGeometry relative="1" as="geometry" />
        </mxCell>
        <mxCell id="hpwiOvs-CnEdbyn8o_mo-114" style="edgeStyle=orthogonalEdgeStyle;rounded=0;orthogonalLoop=1;jettySize=auto;html=1;exitX=1;exitY=0.5;exitDx=0;exitDy=0;entryX=0;entryY=0.5;entryDx=0;entryDy=0;fontColor=#FF6666;" edge="1" parent="1" source="hpwiOvs-CnEdbyn8o_mo-73" target="hpwiOvs-CnEdbyn8o_mo-113">
          <mxGeometry relative="1" as="geometry" />
        </mxCell>
        <mxCell id="hpwiOvs-CnEdbyn8o_mo-73" value="TransactionAspectSupport.java&lt;br&gt;status = tm.getTransaction(txAttr);&lt;br&gt;&lt;div&gt;&lt;/div&gt;" style="rounded=1;whiteSpace=wrap;html=1;" vertex="1" parent="1">
          <mxGeometry x="3150" y="1126.25" width="220" height="50" as="geometry" />
        </mxCell>
        <mxCell id="hpwiOvs-CnEdbyn8o_mo-78" style="edgeStyle=orthogonalEdgeStyle;rounded=0;orthogonalLoop=1;jettySize=auto;html=1;exitX=1;exitY=0.5;exitDx=0;exitDy=0;fontColor=#3333FF;entryX=0;entryY=0.5;entryDx=0;entryDy=0;" edge="1" parent="1" source="hpwiOvs-CnEdbyn8o_mo-75" target="hpwiOvs-CnEdbyn8o_mo-77">
          <mxGeometry relative="1" as="geometry" />
        </mxCell>
        <mxCell id="hpwiOvs-CnEdbyn8o_mo-89" style="edgeStyle=orthogonalEdgeStyle;rounded=0;orthogonalLoop=1;jettySize=auto;html=1;exitX=1;exitY=0.5;exitDx=0;exitDy=0;fontColor=#3333FF;" edge="1" parent="1" source="hpwiOvs-CnEdbyn8o_mo-75" target="hpwiOvs-CnEdbyn8o_mo-81">
          <mxGeometry relative="1" as="geometry" />
        </mxCell>
        <mxCell id="hpwiOvs-CnEdbyn8o_mo-91" style="edgeStyle=orthogonalEdgeStyle;rounded=0;orthogonalLoop=1;jettySize=auto;html=1;exitX=1;exitY=0.5;exitDx=0;exitDy=0;entryX=0;entryY=0.5;entryDx=0;entryDy=0;fontColor=#3333FF;" edge="1" parent="1" source="hpwiOvs-CnEdbyn8o_mo-75" target="hpwiOvs-CnEdbyn8o_mo-90">
          <mxGeometry relative="1" as="geometry" />
        </mxCell>
        <mxCell id="hpwiOvs-CnEdbyn8o_mo-75" value="AbstractPlatformTransactionManager.java&lt;br&gt;Object transaction = doGetTransaction();&lt;br&gt;&lt;div&gt;&lt;/div&gt;" style="rounded=1;whiteSpace=wrap;html=1;" vertex="1" parent="1">
          <mxGeometry x="3470" y="1125" width="290" height="52.5" as="geometry" />
        </mxCell>
        <mxCell id="hpwiOvs-CnEdbyn8o_mo-77" value="创建事务对象&lt;br&gt;DataSourceTransactionManager.java&lt;br&gt;DataSourceTransactionObject txObject = new DataSourceTransactionObject();&lt;br&gt;&lt;div&gt;&lt;/div&gt;" style="rounded=1;whiteSpace=wrap;html=1;" vertex="1" parent="1">
          <mxGeometry x="3880" y="1000" width="290" height="82.5" as="geometry" />
        </mxCell>
        <mxCell id="hpwiOvs-CnEdbyn8o_mo-84" style="edgeStyle=orthogonalEdgeStyle;rounded=0;orthogonalLoop=1;jettySize=auto;html=1;exitX=1;exitY=0.5;exitDx=0;exitDy=0;fontColor=#3333FF;" edge="1" parent="1" source="hpwiOvs-CnEdbyn8o_mo-81" target="hpwiOvs-CnEdbyn8o_mo-82">
          <mxGeometry relative="1" as="geometry" />
        </mxCell>
        <mxCell id="hpwiOvs-CnEdbyn8o_mo-81" value="以DateSource为key，到类型为ThreadLocal的resource属性中去获取conn连接对象&lt;br&gt;DataSourceTransactionManager.java&lt;br&gt;&lt;div&gt;ConnectionHolder conHolder =&lt;/div&gt;&lt;div&gt;&lt;span&gt;				&lt;/span&gt;(ConnectionHolder) TransactionSynchronizationManager.getResource(obtainDataSource());&lt;/div&gt;&lt;div&gt;&lt;/div&gt;" style="rounded=1;whiteSpace=wrap;html=1;fillColor=#dae8fc;strokeColor=#6c8ebf;" vertex="1" parent="1">
          <mxGeometry x="3880" y="1140" width="510" height="70" as="geometry" />
        </mxCell>
        <mxCell id="hpwiOvs-CnEdbyn8o_mo-85" style="edgeStyle=orthogonalEdgeStyle;rounded=0;orthogonalLoop=1;jettySize=auto;html=1;exitX=1;exitY=0.5;exitDx=0;exitDy=0;entryX=0;entryY=0.5;entryDx=0;entryDy=0;fontColor=#3333FF;" edge="1" parent="1" source="hpwiOvs-CnEdbyn8o_mo-82" target="hpwiOvs-CnEdbyn8o_mo-83">
          <mxGeometry relative="1" as="geometry" />
        </mxCell>
        <mxCell id="hpwiOvs-CnEdbyn8o_mo-87" style="edgeStyle=orthogonalEdgeStyle;rounded=0;orthogonalLoop=1;jettySize=auto;html=1;exitX=1;exitY=0.5;exitDx=0;exitDy=0;entryX=0;entryY=0.5;entryDx=0;entryDy=0;fontColor=#3333FF;" edge="1" parent="1" source="hpwiOvs-CnEdbyn8o_mo-82" target="hpwiOvs-CnEdbyn8o_mo-86">
          <mxGeometry relative="1" as="geometry" />
        </mxCell>
        <mxCell id="hpwiOvs-CnEdbyn8o_mo-82" value="TransactionSynchronizationManager.java&lt;br&gt;Object value = doGetResource(actualKey);&lt;br&gt;&lt;div&gt;&lt;/div&gt;" style="rounded=1;whiteSpace=wrap;html=1;" vertex="1" parent="1">
          <mxGeometry x="4480" y="1146.88" width="240" height="56.25" as="geometry" />
        </mxCell>
        <mxCell id="hpwiOvs-CnEdbyn8o_mo-83" value="获取ThreadLoca中的Map&lt;br&gt;TransactionSynchronizationManager.java&lt;br&gt;Map&amp;lt;Object, Object&amp;gt; map = resources.get();&lt;br&gt;&lt;br&gt;&lt;div&gt;&lt;/div&gt;" style="rounded=1;whiteSpace=wrap;html=1;" vertex="1" parent="1">
          <mxGeometry x="4810" y="1072.5" width="290" height="82.5" as="geometry" />
        </mxCell>
        <mxCell id="hpwiOvs-CnEdbyn8o_mo-86" value="以DateSource为key，到类型为ThreadLocal的resource属性中去获取conn连接对象&lt;br&gt;TransactionSynchronizationManager.java&lt;br&gt;Object value = map.get(actualKey)&lt;br&gt;&lt;div&gt;&lt;/div&gt;" style="rounded=1;whiteSpace=wrap;html=1;" vertex="1" parent="1">
          <mxGeometry x="4810" y="1203.13" width="290" height="82.5" as="geometry" />
        </mxCell>
        <mxCell id="hpwiOvs-CnEdbyn8o_mo-90" value="设置conn对象，conHolder存在为null的情况&lt;br&gt;DataSourceTransactionManager.java&lt;br&gt;txObject.setConnectionHolder(conHolder, false);&lt;br&gt;&lt;div&gt;&lt;/div&gt;" style="rounded=1;whiteSpace=wrap;html=1;" vertex="1" parent="1">
          <mxGeometry x="3880" y="1285.63" width="290" height="82.5" as="geometry" />
        </mxCell>
        <mxCell id="hpwiOvs-CnEdbyn8o_mo-95" style="edgeStyle=orthogonalEdgeStyle;rounded=0;orthogonalLoop=1;jettySize=auto;html=1;exitX=1;exitY=0.5;exitDx=0;exitDy=0;fontColor=#3333FF;dashed=1;" edge="1" parent="1" source="hpwiOvs-CnEdbyn8o_mo-92" target="hpwiOvs-CnEdbyn8o_mo-94">
          <mxGeometry relative="1" as="geometry" />
        </mxCell>
        <mxCell id="hpwiOvs-CnEdbyn8o_mo-99" style="edgeStyle=orthogonalEdgeStyle;rounded=0;orthogonalLoop=1;jettySize=auto;html=1;exitX=0.5;exitY=1;exitDx=0;exitDy=0;fontColor=#000000;dashed=1;" edge="1" parent="1" source="hpwiOvs-CnEdbyn8o_mo-92" target="hpwiOvs-CnEdbyn8o_mo-98">
          <mxGeometry relative="1" as="geometry" />
        </mxCell>
        <mxCell id="hpwiOvs-CnEdbyn8o_mo-100" value="不存在事务" style="edgeLabel;html=1;align=center;verticalAlign=middle;resizable=0;points=[];fontColor=#000000;" vertex="1" connectable="0" parent="hpwiOvs-CnEdbyn8o_mo-99">
          <mxGeometry x="-0.0788" relative="1" as="geometry">
            <mxPoint as="offset" />
          </mxGeometry>
        </mxCell>
        <mxCell id="hpwiOvs-CnEdbyn8o_mo-102" value="存在事务" style="edgeStyle=orthogonalEdgeStyle;rounded=0;orthogonalLoop=1;jettySize=auto;html=1;exitX=1;exitY=1;exitDx=0;exitDy=0;entryX=0;entryY=0.5;entryDx=0;entryDy=0;fontColor=#000000;" edge="1" parent="1" source="hpwiOvs-CnEdbyn8o_mo-92" target="hpwiOvs-CnEdbyn8o_mo-101">
          <mxGeometry relative="1" as="geometry">
            <Array as="points">
              <mxPoint x="3750" y="1507" />
              <mxPoint x="3750" y="1666" />
            </Array>
          </mxGeometry>
        </mxCell>
        <mxCell id="hpwiOvs-CnEdbyn8o_mo-92" value="是否存在事务&lt;br&gt;isExistingTransaction(transaction)&lt;br&gt;&lt;div&gt;&lt;/div&gt;" style="rhombus;whiteSpace=wrap;html=1;" vertex="1" parent="1">
          <mxGeometry x="3480" y="1440" width="290" height="90" as="geometry" />
        </mxCell>
        <mxCell id="hpwiOvs-CnEdbyn8o_mo-96" style="edgeStyle=orthogonalEdgeStyle;rounded=0;orthogonalLoop=1;jettySize=auto;html=1;exitX=0.5;exitY=0;exitDx=0;exitDy=0;dashed=1;fontColor=#3333FF;" edge="1" parent="1" source="hpwiOvs-CnEdbyn8o_mo-94" target="hpwiOvs-CnEdbyn8o_mo-90">
          <mxGeometry relative="1" as="geometry">
            <mxPoint x="4024.826086956522" y="1370" as="targetPoint" />
          </mxGeometry>
        </mxCell>
        <mxCell id="hpwiOvs-CnEdbyn8o_mo-97" value="&lt;span style=&quot;font-size: 12px ; background-color: rgb(248 , 249 , 250)&quot;&gt;txObject就是这里创建的&lt;/span&gt;" style="edgeLabel;html=1;align=center;verticalAlign=middle;resizable=0;points=[];fontColor=#000000;" vertex="1" connectable="0" parent="hpwiOvs-CnEdbyn8o_mo-96">
          <mxGeometry x="0.118" relative="1" as="geometry">
            <mxPoint as="offset" />
          </mxGeometry>
        </mxCell>
        <mxCell id="hpwiOvs-CnEdbyn8o_mo-94" value="&lt;div&gt;判断当前线程是否存在事务，判断依据为当前线程记录的连接不为空且连接中（ connectionHolder ) 中的&lt;/div&gt;&lt;span&gt;transactionActive 属性不为空&lt;/span&gt;(txObject.hasConnectionHolder() &amp;amp;&amp;amp; txObject.getConnectionHolder().isTransactionActive())&lt;br&gt;&lt;div&gt;&lt;/div&gt;" style="rounded=1;whiteSpace=wrap;html=1;" vertex="1" parent="1">
          <mxGeometry x="3880" y="1443.75" width="290" height="82.5" as="geometry" />
        </mxCell>
        <mxCell id="hpwiOvs-CnEdbyn8o_mo-98" value="AbstractPlatformTransactionManager.java&lt;br&gt;Object transaction = doGetTransaction();&lt;br&gt;&lt;div&gt;&lt;/div&gt;" style="rounded=1;whiteSpace=wrap;html=1;" vertex="1" parent="1">
          <mxGeometry x="3480" y="1840" width="290" height="52.5" as="geometry" />
        </mxCell>
        <mxCell id="hpwiOvs-CnEdbyn8o_mo-101" value="AbstractPlatformTransactionManager.java&lt;br&gt;Object transaction = doGetTransaction();&lt;br&gt;&lt;div&gt;&lt;/div&gt;" style="rounded=1;whiteSpace=wrap;html=1;" vertex="1" parent="1">
          <mxGeometry x="3890" y="1640" width="290" height="52.5" as="geometry" />
        </mxCell>
        <mxCell id="hpwiOvs-CnEdbyn8o_mo-107" style="edgeStyle=orthogonalEdgeStyle;rounded=0;orthogonalLoop=1;jettySize=auto;html=1;exitX=1;exitY=0.5;exitDx=0;exitDy=0;fontColor=#000000;" edge="1" parent="1" source="hpwiOvs-CnEdbyn8o_mo-104" target="hpwiOvs-CnEdbyn8o_mo-106">
          <mxGeometry relative="1" as="geometry" />
        </mxCell>
        <mxCell id="hpwiOvs-CnEdbyn8o_mo-108" value="小于-1" style="edgeLabel;html=1;align=center;verticalAlign=middle;resizable=0;points=[];fontColor=#000000;" vertex="1" connectable="0" parent="hpwiOvs-CnEdbyn8o_mo-107">
          <mxGeometry x="-0.3642" y="2" relative="1" as="geometry">
            <mxPoint x="15" y="2" as="offset" />
          </mxGeometry>
        </mxCell>
        <mxCell id="hpwiOvs-CnEdbyn8o_mo-104" value="检查设置的超时时间&lt;br&gt;definition.getTimeout() &amp;lt; TransactionDefinition.TIMEOUT_DEFAULT&lt;br&gt;&lt;div&gt;&lt;/div&gt;" style="rhombus;whiteSpace=wrap;html=1;" vertex="1" parent="1">
          <mxGeometry x="3480" y="1970" width="290" height="90" as="geometry" />
        </mxCell>
        <mxCell id="hpwiOvs-CnEdbyn8o_mo-106" value="抛出异常&lt;br&gt;throw new InvalidTimeoutException(&quot;Invalid transaction timeout&quot;, definition.getTimeout());&lt;br&gt;&lt;div&gt;&lt;/div&gt;" style="rounded=1;whiteSpace=wrap;html=1;" vertex="1" parent="1">
          <mxGeometry x="3880" y="1988.75" width="290" height="52.5" as="geometry" />
        </mxCell>
        <mxCell id="hpwiOvs-CnEdbyn8o_mo-112" style="edgeStyle=orthogonalEdgeStyle;rounded=0;orthogonalLoop=1;jettySize=auto;html=1;exitX=1;exitY=0.5;exitDx=0;exitDy=0;fontColor=#FF6666;" edge="1" parent="1" source="hpwiOvs-CnEdbyn8o_mo-109" target="hpwiOvs-CnEdbyn8o_mo-111">
          <mxGeometry relative="1" as="geometry" />
        </mxCell>
        <mxCell id="hpwiOvs-CnEdbyn8o_mo-120" value="true" style="edgeLabel;html=1;align=center;verticalAlign=middle;resizable=0;points=[];fontColor=#000000;" vertex="1" connectable="0" parent="hpwiOvs-CnEdbyn8o_mo-112">
          <mxGeometry x="-0.1462" relative="1" as="geometry">
            <mxPoint as="offset" />
          </mxGeometry>
        </mxCell>
        <mxCell id="hpwiOvs-CnEdbyn8o_mo-109" value="检查事务传播属性&lt;br&gt;definition.getPropagationBehavior() == TransactionDefinition.&lt;font color=&quot;#ff6666&quot;&gt;&lt;b&gt;PROPAGATION_MANDATORY&lt;/b&gt;&lt;/font&gt;&lt;br&gt;&lt;div&gt;&lt;/div&gt;" style="rhombus;whiteSpace=wrap;html=1;" vertex="1" parent="1">
          <mxGeometry x="3480" y="2120" width="290" height="90" as="geometry" />
        </mxCell>
        <mxCell id="hpwiOvs-CnEdbyn8o_mo-111" value="抛出异常&lt;br&gt;&lt;div&gt;throw new IllegalTransactionStateException(&lt;/div&gt;&lt;div&gt;&lt;span&gt;					&lt;/span&gt;&quot;No existing transaction found for transaction marked with propagation &#39;mandatory&#39;&quot;);&lt;/div&gt;&lt;div&gt;&lt;/div&gt;" style="rounded=1;whiteSpace=wrap;html=1;" vertex="1" parent="1">
          <mxGeometry x="3880" y="2129.38" width="310" height="71.25" as="geometry" />
        </mxCell>
        <mxCell id="hpwiOvs-CnEdbyn8o_mo-116" value="" style="edgeStyle=orthogonalEdgeStyle;rounded=0;orthogonalLoop=1;jettySize=auto;html=1;fontColor=#FF6666;entryX=0.5;entryY=0;entryDx=0;entryDy=0;" edge="1" parent="1" source="hpwiOvs-CnEdbyn8o_mo-113" target="hpwiOvs-CnEdbyn8o_mo-119">
          <mxGeometry relative="1" as="geometry">
            <mxPoint x="3655" y="2585" as="targetPoint" />
          </mxGeometry>
        </mxCell>
        <mxCell id="hpwiOvs-CnEdbyn8o_mo-118" value="&lt;font color=&quot;#000000&quot;&gt;true&lt;/font&gt;" style="edgeLabel;html=1;align=center;verticalAlign=middle;resizable=0;points=[];fontColor=#FF6666;" vertex="1" connectable="0" parent="hpwiOvs-CnEdbyn8o_mo-116">
          <mxGeometry x="-0.072" relative="1" as="geometry">
            <mxPoint as="offset" />
          </mxGeometry>
        </mxCell>
        <mxCell id="hpwiOvs-CnEdbyn8o_mo-113" value="检查事务传播属性&lt;br&gt;&lt;div&gt;definition.getPropagationBehavior() == TransactionDefinition.&lt;font color=&quot;#ff6666&quot;&gt;&lt;b&gt;PROPAGATION_REQUIRED&lt;/b&gt;&lt;/font&gt; ||&lt;/div&gt;&lt;div&gt;&lt;span&gt;				&lt;/span&gt;definition.getPropagationBehavior() == TransactionDefinition.&lt;font color=&quot;#ff6666&quot;&gt;&lt;b&gt;PROPAGATION_REQUIRES_NEW&lt;/b&gt;&lt;/font&gt; ||&lt;/div&gt;&lt;div&gt;&lt;span&gt;				&lt;/span&gt;definition.getPropagationBehavior() == TransactionDefinition.&lt;font color=&quot;#ff6666&quot;&gt;&lt;b&gt;PROPAGATION_NESTED&lt;/b&gt;&lt;/font&gt;&lt;/div&gt;&lt;div&gt;&lt;/div&gt;" style="rhombus;whiteSpace=wrap;html=1;" vertex="1" parent="1">
          <mxGeometry x="3480" y="2310" width="350" height="150" as="geometry" />
        </mxCell>
        <mxCell id="hpwiOvs-CnEdbyn8o_mo-122" style="edgeStyle=orthogonalEdgeStyle;rounded=0;orthogonalLoop=1;jettySize=auto;html=1;exitX=1;exitY=0.5;exitDx=0;exitDy=0;entryX=0;entryY=0.5;entryDx=0;entryDy=0;fontColor=#000000;" edge="1" parent="1" source="hpwiOvs-CnEdbyn8o_mo-119" target="hpwiOvs-CnEdbyn8o_mo-121">
          <mxGeometry relative="1" as="geometry" />
        </mxCell>
        <mxCell id="hpwiOvs-CnEdbyn8o_mo-119" value="执行 true 的逻辑&lt;br&gt;&lt;div&gt;&lt;/div&gt;" style="rounded=1;whiteSpace=wrap;html=1;" vertex="1" parent="1">
          <mxGeometry x="3555" y="2570" width="200" height="50" as="geometry" />
        </mxCell>
        <mxCell id="hpwiOvs-CnEdbyn8o_mo-124" style="edgeStyle=orthogonalEdgeStyle;rounded=0;orthogonalLoop=1;jettySize=auto;html=1;exitX=1;exitY=0.5;exitDx=0;exitDy=0;entryX=0;entryY=0.5;entryDx=0;entryDy=0;fontColor=#000000;" edge="1" parent="1" source="hpwiOvs-CnEdbyn8o_mo-121" target="hpwiOvs-CnEdbyn8o_mo-123">
          <mxGeometry relative="1" as="geometry" />
        </mxCell>
        <mxCell id="hpwiOvs-CnEdbyn8o_mo-121" value="执行一个空挂起&lt;br&gt;SuspendedResourcesHolder suspendedResources = suspend(null);&lt;br&gt;&lt;div&gt;&lt;/div&gt;" style="rounded=1;whiteSpace=wrap;html=1;" vertex="1" parent="1">
          <mxGeometry x="3890" y="2450" width="230" height="60" as="geometry" />
        </mxCell>
        <mxCell id="hpwiOvs-CnEdbyn8o_mo-126" style="edgeStyle=orthogonalEdgeStyle;rounded=0;orthogonalLoop=1;jettySize=auto;html=1;exitX=1;exitY=0.5;exitDx=0;exitDy=0;fontColor=#000000;entryX=0;entryY=0.5;entryDx=0;entryDy=0;" edge="1" parent="1" source="hpwiOvs-CnEdbyn8o_mo-123" target="hpwiOvs-CnEdbyn8o_mo-125">
          <mxGeometry relative="1" as="geometry" />
        </mxCell>
        <mxCell id="hpwiOvs-CnEdbyn8o_mo-127" value="false" style="edgeLabel;html=1;align=center;verticalAlign=middle;resizable=0;points=[];fontColor=#000000;" vertex="1" connectable="0" parent="hpwiOvs-CnEdbyn8o_mo-126">
          <mxGeometry x="-0.2" y="-2" relative="1" as="geometry">
            <mxPoint y="-24" as="offset" />
          </mxGeometry>
        </mxCell>
        <mxCell id="hpwiOvs-CnEdbyn8o_mo-129" style="edgeStyle=orthogonalEdgeStyle;rounded=0;orthogonalLoop=1;jettySize=auto;html=1;exitX=1;exitY=0.5;exitDx=0;exitDy=0;entryX=0;entryY=0.5;entryDx=0;entryDy=0;fontColor=#000000;" edge="1" parent="1" source="hpwiOvs-CnEdbyn8o_mo-123" target="hpwiOvs-CnEdbyn8o_mo-128">
          <mxGeometry relative="1" as="geometry" />
        </mxCell>
        <mxCell id="hpwiOvs-CnEdbyn8o_mo-130" value="true" style="edgeLabel;html=1;align=center;verticalAlign=middle;resizable=0;points=[];fontColor=#000000;" vertex="1" connectable="0" parent="hpwiOvs-CnEdbyn8o_mo-129">
          <mxGeometry x="0.125" y="3" relative="1" as="geometry">
            <mxPoint x="-8" y="-5" as="offset" />
          </mxGeometry>
        </mxCell>
        <mxCell id="hpwiOvs-CnEdbyn8o_mo-123" value="如果是第一事务，那么这里就是false&lt;br&gt;TransactionSynchronizationManager.isSynchronizationActive()&lt;br&gt;&lt;div&gt;&lt;/div&gt;" style="rhombus;whiteSpace=wrap;html=1;" vertex="1" parent="1">
          <mxGeometry x="4250" y="2435" width="360" height="90" as="geometry" />
        </mxCell>
        <mxCell id="hpwiOvs-CnEdbyn8o_mo-125" value="return null" style="rounded=1;whiteSpace=wrap;html=1;" vertex="1" parent="1">
          <mxGeometry x="4720" y="2380" width="210" height="40" as="geometry" />
        </mxCell>
        <mxCell id="hpwiOvs-CnEdbyn8o_mo-132" style="edgeStyle=orthogonalEdgeStyle;rounded=0;orthogonalLoop=1;jettySize=auto;html=1;exitX=1;exitY=0.5;exitDx=0;exitDy=0;entryX=0;entryY=0.5;entryDx=0;entryDy=0;fontColor=#000000;" edge="1" parent="1" source="hpwiOvs-CnEdbyn8o_mo-128" target="hpwiOvs-CnEdbyn8o_mo-131">
          <mxGeometry relative="1" as="geometry" />
        </mxCell>
        <mxCell id="hpwiOvs-CnEdbyn8o_mo-128" value="执行逻辑" style="rounded=1;whiteSpace=wrap;html=1;" vertex="1" parent="1">
          <mxGeometry x="4720" y="2510" width="210" height="40" as="geometry" />
        </mxCell>
        <mxCell id="hpwiOvs-CnEdbyn8o_mo-131" value="AbstractPlatformTransactionManager.java&lt;br&gt;List&amp;lt;TransactionSynchronization&amp;gt; suspendedSynchronizations = doSuspendSynchronization();" style="rounded=1;whiteSpace=wrap;html=1;" vertex="1" parent="1">
          <mxGeometry x="5020" y="2430" width="350" height="70" as="geometry" />
        </mxCell>
        <mxCell id="hpwiOvs-CnEdbyn8o_mo-133" value="AbstractPlatformTransactionManager.java&lt;br&gt;synchronization.suspend();" style="rounded=1;whiteSpace=wrap;html=1;" vertex="1" parent="1">
          <mxGeometry x="5020" y="2530" width="340" height="40" as="geometry" />
        </mxCell>
      </root>
    </mxGraphModel>
  </diagram>
</mxfile>
